<?xml version="1.0" encoding="UTF-8"?>
<svg width="24px" height="24px" viewBox="0 0 24 24" version="1.1" xmlns="http://www.w3.org/2000/svg" xmlns:xlink="http://www.w3.org/1999/xlink">
    <!-- Generator: Sketch 41.2 (35397) - http://www.bohemiancoding.com/sketch -->
    <title>search</title>
    <desc>Created with Sketch.</desc>
    <defs></defs>
    <g id="Page-1" stroke="none" stroke-width="1" fill="none" fill-rule="evenodd">
        <g id="样式" transform="translate(-3355.000000, -179.000000)">
            <g id="search" opacity="0.699999988" transform="translate(3356.000000, 180.000000)" stroke="#1C242B" fill="#1E272E">
                <path d="M14.3706184,4.28713185 C11.5863896,1.50162548 7.07124652,1.50162548 4.28571733,4.28713185 C1.50018815,7.07263822 1.50018815,11.5878041 4.28571733,14.3720329 C5.57607763,15.6627582 7.35887289,16.461117 9.32817926,16.461117 C11.2974628,16.461117 13.0802581,15.6627354 14.3706184,14.3720329 C15.6613665,13.0816726 16.4597253,11.2988545 16.4597253,9.32957096 C16.4597253,7.36028741 15.6613437,5.57749215 14.3706412,4.28713185 L14.3706184,4.28713185 Z M2.73321481,15.9245582 C1.04469037,14.2364673 0.000296592592,11.9041316 0.000296592592,9.32788267 C0.000296592592,4.17625185 4.17654844,0 9.32817926,0 C14.4798329,0 18.6560619,4.17625185 18.6560619,9.32788267 C18.6560619,11.9041316 17.6116453,14.2364673 15.9231437,15.9245354 C14.2351896,17.612056 11.9035612,18.6557653 9.32817926,18.6557653 C6.75277452,18.6557653 4.42116889,17.612056 2.73321481,15.9245354 L2.73321481,15.9245582 Z" id="Shape" stroke-width="0.72"></path>
                <path d="M21.6239434,21.6253579 C21.3935366,21.8561298 21.0750646,21.9988821 20.7232145,21.9988821 C20.3713644,21.9988821 20.0528924,21.8561298 19.8225084,21.6253807 L18.0223511,19.8239458 C17.7919899,19.5935846 17.6495114,19.2753636 17.6495114,18.9238557 C17.6495114,18.22084 18.2194255,17.6509716 18.9223956,17.6509716 C19.2738806,17.6509716 19.5921244,17.7934501 19.8224856,18.0237884 L21.6238978,19.8239458 C21.8552856,20.0540788 21.9984714,20.3726421 21.9984714,20.7246519 C21.9984714,21.0766616 21.8552628,21.3952477 21.6239434,21.6253123 L21.6239434,21.6253579 Z" id="Path" stroke-width="1.8" opacity="0.5"></path>
            </g>
            <g id="Group-7" transform="translate(3355.000000, 179.000000)"></g>
        </g>
    </g>
</svg>